<?xml version="1.0" standalone="no"?>
<!DOCTYPE svg PUBLIC "-//W3C//DTD SVG 20010904//EN"
 "http://www.w3.org/TR/2001/REC-SVG-20010904/DTD/svg10.dtd">
<svg version="1.0" xmlns="http://www.w3.org/2000/svg"
 width="1200.000000pt" height="1200.000000pt" viewBox="0 0 1200.000000 1200.000000"
 preserveAspectRatio="xMidYMid meet">

<g transform="translate(0.000000,1200.000000) scale(0.100000,-0.100000)"
fill="#000000" stroke="none">
<path d="M3000 8175 l0 -75 3000 0 3000 0 0 75 0 75 -3000 0 -3000 0 0 -75z"/>
<path d="M3270 7165 c0 -148 1 -155 20 -155 18 0 20 7 20 70 l0 70 45 0 45 0
0 -70 c0 -63 2 -70 20 -70 19 0 20 7 20 155 0 148 -1 155 -20 155 -18 0 -20
-7 -20 -70 l0 -70 -45 0 -45 0 0 70 c0 63 -2 70 -20 70 -19 0 -20 -7 -20 -155z"/>
<path d="M3500 7190 c0 -126 1 -132 25 -155 35 -36 96 -35 124 1 19 24 21 40
21 155 0 122 -1 129 -20 129 -19 0 -20 -7 -20 -130 0 -128 -1 -131 -24 -141
-17 -8 -29 -8 -45 0 -20 11 -21 19 -21 141 0 123 -1 130 -20 130 -19 0 -20 -7
-20 -130z"/>
<path d="M3720 7166 c0 -149 1 -156 20 -156 19 0 20 7 21 118 l1 117 17 -65
c13 -51 21 -65 36 -65 15 0 22 13 34 62 9 34 18 64 21 66 3 3 5 -47 5 -111 0
-103 2 -117 18 -120 16 -3 17 10 17 152 l0 156 -29 0 c-32 0 -32 0 -52 -95
l-12 -60 -17 75 c-16 73 -17 75 -48 78 l-32 3 0 -155z"/>
<path d="M4015 7298 c-2 -13 -18 -81 -35 -152 -16 -70 -30 -130 -30 -132 0 -2
9 -4 19 -4 14 0 21 10 28 38 8 35 11 37 50 40 41 3 41 3 48 -37 5 -31 11 -41
26 -41 10 0 19 3 19 6 0 7 -48 218 -61 267 -8 30 -14 37 -34 37 -17 0 -26 -7
-30 -22z m45 -85 c6 -32 14 -66 16 -75 4 -15 -1 -18 -31 -18 -28 0 -36 4 -32
14 3 8 11 41 18 75 6 34 13 61 15 61 1 0 8 -26 14 -57z"/>
<path d="M4190 7165 c0 -148 1 -155 20 -155 19 0 20 7 21 128 l1 127 31 -127
30 -128 34 0 33 0 0 155 c0 148 -1 155 -20 155 -19 0 -20 -7 -21 -127 l0 -128
-32 128 -31 127 -33 0 -33 0 0 -155z"/>
<path d="M4692 7304 c-21 -14 -22 -22 -22 -139 0 -117 1 -125 22 -139 30 -21
115 -22 115 -1 0 11 -11 15 -36 15 -62 0 -66 7 -66 125 0 118 4 125 66 125 25
0 36 4 36 15 0 21 -85 20 -115 -1z"/>
<path d="M4935 7298 c-2 -13 -18 -81 -35 -152 -16 -70 -30 -130 -30 -132 0 -2
9 -4 19 -4 14 0 21 10 28 38 8 35 11 37 50 40 41 3 41 3 48 -37 5 -31 11 -41
26 -41 10 0 19 3 19 6 0 7 -48 218 -61 267 -8 30 -14 37 -34 37 -17 0 -26 -7
-30 -22z m45 -85 c6 -32 14 -66 16 -75 4 -15 -1 -18 -31 -18 -28 0 -36 4 -32
14 3 8 11 41 18 75 6 34 13 61 15 61 1 0 8 -26 14 -57z"/>
<path d="M5120 7165 c0 -148 1 -155 20 -155 18 0 20 7 20 60 l0 60 33 0 c18 0
43 7 55 16 19 13 22 24 22 79 0 78 -17 95 -97 95 l-53 0 0 -155z m108 108 c13
-25 7 -94 -10 -104 -7 -5 -23 -9 -35 -9 -22 0 -23 4 -23 65 l0 65 30 0 c18 0
33 -7 38 -17z"/>
<path d="M5370 7306 c0 -7 9 -16 20 -19 19 -5 20 -14 20 -122 0 -108 -1 -117
-20 -122 -11 -3 -20 -12 -20 -19 0 -10 15 -14 55 -14 40 0 55 4 55 14 0 7 -9
16 -20 19 -19 5 -20 14 -20 122 0 108 1 117 20 122 11 3 20 12 20 19 0 10 -15
14 -55 14 -40 0 -55 -4 -55 -14z"/>
<path d="M5570 7306 c0 -9 12 -16 33 -18 l32 -3 3 -137 c2 -112 5 -138 17
-138 12 0 15 26 17 138 l3 137 33 3 c20 2 32 9 32 18 0 11 -18 14 -85 14 -67
0 -85 -3 -85 -14z"/>
<path d="M5855 7298 c-2 -13 -18 -81 -35 -152 -16 -70 -30 -130 -30 -132 0 -2
9 -4 19 -4 14 0 21 10 28 38 8 35 11 37 50 40 41 3 41 3 48 -37 5 -31 11 -41
26 -41 10 0 19 3 19 6 0 7 -48 218 -61 267 -8 30 -14 37 -34 37 -17 0 -26 -7
-30 -22z m45 -85 c6 -32 14 -66 16 -75 4 -15 -1 -18 -31 -18 -28 0 -36 4 -32
14 3 8 11 41 18 75 6 34 13 61 15 61 1 0 8 -26 14 -57z"/>
<path d="M6050 7165 l0 -155 65 0 c51 0 65 3 65 15 0 11 -12 15 -45 15 l-45 0
0 140 c0 133 -1 140 -20 140 -19 0 -20 -7 -20 -155z"/>
<path d="M6480 7166 c0 -149 1 -156 20 -156 19 0 20 7 21 118 l1 117 17 -65
c13 -51 21 -65 36 -65 15 0 22 13 34 62 9 34 18 64 21 66 3 3 5 -47 5 -111 0
-103 2 -117 18 -120 16 -3 17 10 17 152 l0 156 -29 0 c-32 0 -32 0 -52 -95
l-12 -60 -17 75 c-16 73 -17 75 -48 78 l-32 3 0 -155z"/>
<path d="M6775 7298 c-2 -13 -18 -81 -35 -152 -16 -70 -30 -130 -30 -132 0 -2
9 -4 19 -4 14 0 21 10 28 38 8 35 11 37 50 40 41 3 41 3 48 -37 5 -31 11 -41
26 -41 10 0 19 3 19 6 0 7 -48 218 -61 267 -8 30 -14 37 -34 37 -17 0 -26 -7
-30 -22z m45 -85 c6 -32 14 -66 16 -75 4 -15 -1 -18 -31 -18 -28 0 -36 4 -32
14 3 8 11 41 18 75 6 34 13 61 15 61 1 0 8 -26 14 -57z"/>
<path d="M6950 7165 c0 -148 1 -155 20 -155 19 0 20 7 21 128 l1 127 31 -127
30 -128 34 0 33 0 0 155 c0 148 -1 155 -20 155 -19 0 -20 -7 -21 -127 l0 -128
-32 128 -31 127 -33 0 -33 0 0 -155z"/>
<path d="M7235 7298 c-2 -13 -18 -81 -35 -152 -16 -70 -30 -130 -30 -132 0 -2
9 -4 19 -4 14 0 21 10 28 38 8 35 11 37 50 40 41 3 41 3 48 -37 5 -31 11 -41
26 -41 10 0 19 3 19 6 0 7 -48 218 -61 267 -8 30 -14 37 -34 37 -17 0 -26 -7
-30 -22z m45 -85 c6 -32 14 -66 16 -75 4 -15 -1 -18 -31 -18 -28 0 -36 4 -32
14 3 8 11 41 18 75 6 34 13 61 15 61 1 0 8 -26 14 -57z"/>
<path d="M7440 7300 c-18 -18 -20 -33 -20 -135 0 -141 8 -155 95 -155 l55 0 0
80 0 80 -35 0 c-24 0 -35 -5 -35 -15 0 -8 7 -15 15 -15 11 0 15 -12 15 -50 0
-46 -2 -50 -23 -50 -40 0 -47 18 -47 125 0 65 4 105 12 113 7 7 29 12 50 12
27 0 38 4 38 15 0 24 -95 20 -120 -5z"/>
<path d="M7650 7165 l0 -155 75 0 c60 0 75 3 75 15 0 12 -13 15 -55 15 l-55 0
0 55 0 55 50 0 c38 0 50 4 50 15 0 11 -12 15 -50 15 l-50 0 0 55 0 55 55 0
c42 0 55 3 55 15 0 12 -15 15 -75 15 l-75 0 0 -155z"/>
<path d="M7860 7166 c0 -149 1 -156 20 -156 19 0 20 7 21 118 l1 117 17 -65
c13 -51 21 -65 36 -65 15 0 22 13 34 62 9 34 18 64 21 66 3 3 5 -47 5 -111 0
-103 2 -117 18 -120 16 -3 17 10 17 152 l0 156 -29 0 c-32 0 -32 0 -52 -95
l-12 -60 -17 75 c-16 73 -17 75 -48 78 l-32 3 0 -155z"/>
<path d="M8110 7165 l0 -155 75 0 c60 0 75 3 75 15 0 12 -13 15 -55 15 l-55 0
0 55 0 55 50 0 c38 0 50 4 50 15 0 11 -12 15 -50 15 l-50 0 0 55 0 55 55 0
c42 0 55 3 55 15 0 12 -15 15 -75 15 l-75 0 0 -155z"/>
<path d="M8330 7165 c0 -148 1 -155 20 -155 19 0 20 7 21 128 l1 127 31 -127
30 -128 34 0 33 0 0 155 c0 148 -1 155 -20 155 -19 0 -20 -7 -21 -127 l0 -128
-32 128 -31 127 -33 0 -33 0 0 -155z"/>
<path d="M8560 7306 c0 -9 12 -16 33 -18 l32 -3 3 -137 c2 -112 5 -138 17
-138 12 0 15 26 17 138 l3 137 33 3 c20 2 32 9 32 18 0 11 -18 14 -85 14 -67
0 -85 -3 -85 -14z"/>
<path d="M5510 5911 c-88 -28 -140 -60 -201 -120 -117 -117 -164 -281 -124
-434 25 -98 56 -149 147 -243 73 -76 88 -96 88 -123 0 -25 12 -44 52 -87 28
-30 61 -57 74 -60 12 -3 27 -18 34 -33 14 -35 87 -107 117 -115 12 -4 25 -17
29 -29 9 -31 105 -127 126 -127 11 0 23 -13 31 -32 17 -40 97 -115 132 -124
14 -3 38 -1 54 6 36 15 181 162 181 184 0 9 7 16 16 16 22 0 131 107 138 136
4 13 13 24 22 24 22 0 134 110 134 131 0 11 10 21 24 25 14 3 50 32 80 64 58
61 66 83 46 135 -9 23 -6 32 19 63 181 231 101 584 -162 711 -60 29 -153 51
-212 51 -106 0 -232 -49 -311 -122 l-44 -41 -44 41 c-115 106 -302 150 -446
103z m225 -66 c64 -17 152 -65 187 -102 l21 -23 -106 -108 c-119 -123 -137
-158 -116 -234 15 -57 74 -114 128 -123 77 -13 97 -1 234 134 l129 126 214
-219 c118 -120 214 -226 214 -236 0 -16 -71 -90 -87 -90 -3 0 -61 54 -129 121
-123 122 -144 134 -168 97 -9 -15 7 -36 112 -141 67 -67 122 -129 122 -137 0
-16 -69 -90 -84 -90 -5 0 -64 54 -132 121 -123 122 -144 134 -168 97 -9 -15 8
-37 112 -141 67 -68 122 -130 122 -138 0 -16 -80 -99 -94 -99 -5 0 -31 20 -57
45 -26 25 -57 45 -68 45 -12 0 -23 10 -29 28 -14 40 -58 89 -108 118 -24 14
-44 32 -44 40 0 24 -89 112 -120 119 -19 4 -30 14 -34 31 -9 34 -97 121 -127
126 -45 7 -83 -12 -141 -69 l-58 -57 -70 69 c-83 83 -126 159 -139 246 -29
208 90 390 289 443 72 19 123 19 195 1z m787 -28 c84 -41 152 -107 190 -185
31 -63 33 -73 33 -177 0 -119 -13 -165 -71 -241 l-27 -35 -211 210 c-116 116
-217 211 -225 211 -8 0 -78 -63 -156 -140 -158 -156 -175 -164 -234 -114 -26
22 -31 33 -31 72 l0 47 144 142 c223 218 273 246 436 240 80 -2 105 -7 152
-30z m-835 -709 c18 -18 33 -39 33 -47 0 -20 -120 -141 -139 -141 -16 0 -91
68 -91 83 0 19 124 137 144 137 11 0 35 -14 53 -32z m150 -150 c18 -18 33 -42
33 -53 0 -22 -118 -145 -139 -145 -20 0 -81 62 -81 83 0 25 116 147 139 147 8
0 30 -14 48 -32z m150 -150 c18 -18 33 -41 33 -52 0 -24 -117 -146 -139 -146
-22 0 -81 61 -81 84 0 24 117 146 139 146 8 0 30 -14 48 -32z m162 -163 c17
-20 31 -41 31 -48 0 -20 -123 -137 -144 -137 -24 0 -86 57 -86 79 0 24 121
141 146 141 13 0 35 -15 53 -35z"/>
<path d="M3900 3825 l0 -75 2100 0 2100 0 0 75 0 75 -2100 0 -2100 0 0 -75z"/>
</g>
</svg>
